<?xml version="1.0" standalone="no"?>
<!DOCTYPE svg PUBLIC "-//W3C//DTD SVG 20010904//EN"
 "http://www.w3.org/TR/2001/REC-SVG-20010904/DTD/svg10.dtd">
<svg version="1.0" xmlns="http://www.w3.org/2000/svg"
 width="287.000000pt" height="287.000000pt" viewBox="0 0 287.000000 287.000000"
 preserveAspectRatio="xMidYMid meet">
<metadata>
Created by potrace 1.11, written by Peter Selinger 2001-2013
</metadata>
<g transform="translate(0.000000,287.000000) scale(0.100000,-0.100000)"
fill="#000000" stroke="none">
<path d="M1315 2599 c-521 -49 -950 -448 -1041 -970 -21 -124 -14 -348 15
-465 94 -379 366 -687 725 -822 141 -53 250 -73 406 -74 326 -1 607 112 834
337 173 170 284 377 333 622 16 78 18 155 18 689 0 650 1 634 -54 671 -24 17
-70 18 -586 19 -308 1 -600 -2 -650 -7z m365 -317 c77 -38 99 -111 103 -337
l2 -150 250 -5 250 -5 3 -82 3 -83 -78 0 c-323 0 -582 -103 -728 -288 -103
-129 -168 -318 -183 -532 -5 -66 -11 -122 -14 -125 -3 -3 -46 -7 -96 -8 -104
-2 -118 5 -133 69 -5 21 -6 105 -2 187 l6 147 -251 0 c-233 0 -252 1 -253 18
0 9 0 148 1 307 1 325 4 342 70 380 32 18 50 20 228 18 l192 -2 2 157 c1 139
6 343 7 350 1 1 133 2 294 2 258 0 296 -2 327 -18z m620 -870 c0 -175 -2 -191
-22 -232 -42 -83 -136 -110 -380 -110 l-108 0 -2 -147 c-1 -82 -1 -182 1 -225
3 -70 1 -77 -20 -88 -34 -19 -109 -7 -132 21 -18 22 -19 39 -14 254 3 171 8
242 20 276 66 197 214 342 414 406 71 22 217 44 236 35 4 -2 7 -87 7 -190z"/>
<path d="M1423 1740 c-44 -27 -73 -87 -73 -152 0 -162 178 -201 249 -55 69
142 -52 283 -176 207z"/>
<path d="M800 1606 c0 -2 20 -16 45 -30 131 -77 263 -227 350 -398 30 -60 55
-115 55 -123 0 -8 5 -15 10 -15 6 0 10 8 10 18 0 10 20 58 45 107 25 50 45 93
45 97 0 3 -25 38 -56 76 -99 124 -241 222 -376 258 -49 13 -128 19 -128 10z"/>
</g>
</svg>
